<svg xmlns="http://www.w3.org/2000/svg" version="1.1" xmlns:xlink="http://www.w3.org/1999/xlink" xmlns:svgjs="http://svgjs.com/svgjs" width="800px" height="800px"><svg fill="#000000" height="800px" width="800px" version="1.1" id="SvgjsSvg1000" xmlns="http://www.w3.org/2000/svg" xmlns:xlink="http://www.w3.org/1999/xlink" viewBox="0 0 490.348 490.348" xml:space="preserve">
<g>
	<g>
		<path d="M303.4,3.968l-168.9,116.8H46.9c-26.1,0-46.9,21.9-46.9,49v149.1c0,27.1,20.9,49,46.9,49h88.6l167.9,117.8
			c18.8,12.3,33-4.7,32.3-15.6v-449.4C336.8,13.068,323.7-7.932,303.4,3.968z M40.7,319.868v-149.1c0-5.2,3.1-8.3,6.3-8.3h74v165.8
			H47C43.8,328.268,40.7,324.068,40.7,319.868z M295.1,431.468l-132.4-92.5v-187.2l132.4-92.5V431.468z"></path>
		<path d="M472.3,108.268c-4.2-11.5-15.6-16.7-26.1-13.6c-11.5,4.2-16.7,15.6-13.6,26.1c1,1,36.5,114.7,0,264.8
			c-3.1,11.5,3.1,21.9,14.6,25c11.4,4.5,22.9-5.2,25-14.6C511.9,234.368,474.4,113.468,472.3,108.268z"></path>
		<path d="M386.8,173.968c-11.5,4.2-16.7,15.6-13.6,26.1c1,0,14.6,45.9,0,106.3c-3.1,11.5,3.1,21.9,14.6,25c12.2,4,22.9-5.2,25-15.6
			c17.7-70.9,1-126.1,0-128.2C408.7,176.068,397.2,170.768,386.8,173.968z"></path>
	</g>
</g>
</svg><style>@media (prefers-color-scheme: light) { :root { filter: none; } }
</style></svg>